<svg xmlns="http://www.w3.org/2000/svg" xmlns:svg="http://www.w3.org/2000/svg" id="svg89" width="238.334" height="266.895" version="1.1" viewBox="0 0 1525.341 1708.13" style="fill:none"><metadata id="metadata93"/><g id="g3906" transform="matrix(1.1875255,0,0,1.1875255,273.26842,322.82431)"><path style="fill:url(#paint0_radial_1956_348)" id="path2" d="m 311.52104,824.34599 c 211.288,56.61 430.256,-75.45 489.07903,-294.98003 58.82,-219.528 -64.77703,-443.385986 -276.06503,-499.999986 -211.288,-56.615 -430.256,75.452996 -489.079,294.979986 -58.822,219.528 64.776,443.39003 276.065,500.00003 z"/><path style="fill:url(#paint1_linear_1956_348)" id="path4" d="m 311.52104,824.34599 c 211.288,56.61 430.256,-75.45 489.07903,-294.98003 58.82,-219.528 -64.77703,-443.385986 -276.06503,-499.999986 -211.288,-56.615 -430.256,75.452996 -489.079,294.979986 -58.822,219.528 64.776,443.39003 276.065,500.00003 z"/><path style="fill:url(#paint2_radial_1956_348)" id="path6" d="m 311.52104,824.34599 c 211.288,56.61 430.256,-75.45 489.07903,-294.98003 58.82,-219.528 -64.77703,-443.385986 -276.06503,-499.999986 -211.288,-56.615 -430.256,75.452996 -489.079,294.979986 -58.822,219.528 64.776,443.39003 276.065,500.00003 z"/><path style="fill:url(#paint3_radial_1956_348)" id="path8" d="m 311.52104,824.34599 c 211.288,56.61 430.256,-75.45 489.07903,-294.98003 58.82,-219.528 -64.77703,-443.385986 -276.06503,-499.999986 -211.288,-56.615 -430.256,75.452996 -489.079,294.979986 -58.822,219.528 64.776,443.39003 276.065,500.00003 z"/><g style="filter:url(#filter0_f_1956_348)" id="g12" transform="translate(-232.04996,-272.14403)"><path style="fill:#12235f;fill-opacity:.3" id="path10" d="m 830.757,355.663 c 0,0 45.47,92.269 51.395,154.744 13.952,147.119 -72.514,255.972 -147.153,343.406 93.511,51.356 178.084,-125.585 191.835,-218.368 10.125,-68.315 10.057,-186.486 -96.077,-279.782 z"/></g><g style="filter:url(#filter1_f_1956_348)" id="g16" transform="translate(-230.12996,-272.14403)"><path style="fill:#12235f;fill-opacity:.3" id="path14" d="m 559.257,1083.33 c 0,0 -78.779,-84.302 -107.305,-149.971 C 384.777,778.717 431.675,630.853 474.522,510.292 362.605,486.939 342.241,707.949 362.099,813.27 c 14.621,77.545 57.461,205.61 197.158,270.06 z"/></g><path style="fill:url(#paint4_linear_1956_348)" id="path18" d="m 244.64404,236.15497 c 0,0 -27.778,-27.141 -39.607,-24.823 -18.724,3.693 -54.548,26.346 -66.707,41.54 -18.492,23.108 -40.154,54.902 -51.146,82.641 -26.663,67.28 -32.893,177.223 -12.552,246.675 18.893,74.498 49.812,105.596 101.302,157.36802 52.387,52.68 101.829,75.23 140.747,86.11 -58.945,-28.89 -72.596,-44.97 -107.26,-86.1 -28.282,-33.55902 -40.718,-55.95102 -58.05,-96.28802 -17.486,-40.694 -24.628,-65.418 -29.996,-109.308 -8.079,-66.052 1.881,-117.665 16.971,-169.139 7.177,-24.461 28.579,-71.584 64.557,-101.772 14.86,-12.469 41.741,-26.904 41.741,-26.904 z"/><path style="fill:url(#paint5_linear_1956_348)" id="path20" d="m 457.65404,634.90196 c 0,0 16.642,41.557 28.521,43.938 18.813,3.748 59.571,-9.696 76.657,-19.132 25.985,-14.35 59.39,-29.386 80.165,-50.906 50.39,-52.192 98.02,-151.788 105.539,-224.003 10.784,-76.342 -1.681,-119.235 -32.259,-186.544 -26.431,-58.18 -63.275,-115.227986 -98.46,-130.407986 45.629,47.417996 55.364,67.152986 72.188,118.826986 13.766,42.282 14.988,68.51 14.332,112.916 -0.654,44.34 -5.896,69.259 -17.607,112.027 -17.625,64.364 -46.525,108.424 -80.141,150.39 -15.981,19.94 -34.268,38.543 -56.468,50.715 -12.536,6.876 -25.491,13.174 -43.017,17.584 -18.888,4.754 -49.45,4.596 -49.45,4.596 z"/><path style="fill:url(#paint6_radial_1956_348)" id="path22" d="m 163.42904,106.06697 c -9.012,7.02 -17.582,14.62699 -25.659,22.77499 -86.661,87.293 -131.079,217.543 -116.762,342.378 7.222,62.978 18.494,122.43 51.96,175.626 16.751,26.647 35.772,53.154 64.746,81.34003 58.276,56.69 144.302,91.48 179.374,97.61 -27.661,-9.64 -96.229,-39.73 -142.491,-87.94 -12.573,-13.10303 -19.753,-21.26803 -30.062,-35.61303 -20.723,-28.752 -36.228,-61.392 -46.949,-95.446 -22.9,-72.741 -23.028,-150.793 -7.752,-224.802 9.773,-47.34 28.169,-97.977 60.348,-133.957 10.871,-12.158 24.427,-23.018 40.365,-25.044 64.072,-8.162 75.14,83.711 83.305,129.465 16.594,92.798 47.286,182.378 90.932,265.395 34.963,66.451 84.24,132.84203 155.104,150.92203 54.562,13.92 113.459,-4.46 158.124,-39.33 44.665,-34.86903 76.553,-84.65103 100.65803,-136.96303 17.42,-37.817 31.28,-77.637 38.24,-118.981 8.25,-49.079 6.63,-99.849 -3.45,-148.688 -23.82,-115.413 -147.41403,-243.530986 -200.47303,-259.405986 41.18,21.321 110.071,118.557986 125.867,202.466986 15.796,83.909 1.281,173.35 -40.073,246.923 -17.918,31.878 -43.635,62.74 -78.661,69.741 -37.878,7.577 -76.049,-15.234 -102.52,-44.536 -46.664,-51.69 -67.629,-122.302 -83.194,-191.069 -15.565,-68.767 -27.706,-139.87 -61.456,-201.363 -17.622,-32.09799 -42.523,-62.098986 -76.073,-74.503986 -45.35,-16.776 -94.09,2.395 -133.448,32.999996 z"/><path style="fill:url(#paint7_linear_1956_348)" id="path24" d="m 163.42904,106.06697 c -9.012,7.02 -17.582,14.62699 -25.659,22.77499 -86.661,87.293 -131.079,217.543 -116.762,342.378 7.222,62.978 18.494,122.43 51.96,175.626 16.751,26.647 35.772,53.154 64.746,81.34003 58.276,56.69 144.302,91.48 179.374,97.61 -27.661,-9.64 -96.229,-39.73 -142.491,-87.94 -12.573,-13.10303 -19.753,-21.26803 -30.062,-35.61303 -20.723,-28.752 -36.228,-61.392 -46.949,-95.446 -22.9,-72.741 -23.028,-150.793 -7.752,-224.802 9.773,-47.34 28.169,-97.977 60.348,-133.957 10.871,-12.158 24.427,-23.018 40.365,-25.044 64.072,-8.162 75.14,83.711 83.305,129.465 16.594,92.798 47.286,182.378 90.932,265.395 34.963,66.451 84.24,132.84203 155.104,150.92203 54.562,13.92 113.459,-4.46 158.124,-39.33 44.665,-34.86903 76.553,-84.65103 100.65803,-136.96303 17.42,-37.817 31.28,-77.637 38.24,-118.981 8.25,-49.079 6.63,-99.849 -3.45,-148.688 -23.82,-115.413 -147.41403,-243.530986 -200.47303,-259.405986 41.18,21.321 110.071,118.557986 125.867,202.466986 15.796,83.909 1.281,173.35 -40.073,246.923 -17.918,31.878 -43.635,62.74 -78.661,69.741 -37.878,7.577 -76.049,-15.234 -102.52,-44.536 -46.664,-51.69 -67.629,-122.302 -83.194,-191.069 -15.565,-68.767 -27.706,-139.87 -61.456,-201.363 -17.622,-32.09799 -42.523,-62.098986 -76.073,-74.503986 -45.35,-16.776 -94.09,2.395 -133.448,32.999996 z"/><path style="fill:url(#paint8_linear_1956_348);fill-opacity:.37000002" id="path26" d="m 163.42904,106.06697 c -9.012,7.02 -17.582,14.62699 -25.659,22.77499 -86.661,87.293 -131.079,217.543 -116.762,342.378 7.222,62.978 18.494,122.43 51.96,175.626 16.751,26.647 35.772,53.154 64.746,81.34003 58.276,56.69 144.302,91.48 179.374,97.61 -27.661,-9.64 -96.229,-39.73 -142.491,-87.94 -12.573,-13.10303 -19.753,-21.26803 -30.062,-35.61303 -20.723,-28.752 -36.228,-61.392 -46.949,-95.446 -22.9,-72.741 -23.028,-150.793 -7.752,-224.802 9.773,-47.34 28.169,-97.977 60.348,-133.957 10.871,-12.158 24.427,-23.018 40.365,-25.044 64.072,-8.162 75.14,83.711 83.305,129.465 16.594,92.798 47.286,182.378 90.932,265.395 34.963,66.451 84.24,132.84203 155.104,150.92203 54.562,13.92 113.459,-4.46 158.124,-39.33 44.665,-34.86903 76.553,-84.65103 100.65803,-136.96303 17.42,-37.817 31.28,-77.637 38.24,-118.981 8.25,-49.079 6.63,-99.849 -3.45,-148.688 -23.82,-115.413 -147.41403,-243.530986 -200.47303,-259.405986 41.18,21.321 110.071,118.557986 125.867,202.466986 15.796,83.909 1.281,173.35 -40.073,246.923 -17.918,31.878 -43.635,62.74 -78.661,69.741 -37.878,7.577 -76.049,-15.234 -102.52,-44.536 -46.664,-51.69 -67.629,-122.302 -83.194,-191.069 -15.565,-68.767 -27.706,-139.87 -61.456,-201.363 -17.622,-32.09799 -42.523,-62.098986 -76.073,-74.503986 -45.35,-16.776 -94.09,2.395 -133.448,32.999996 z"/></g><defs id="defs87"><filter id="filter0_f_1956_348" width="906.769" height="1218.05" x="379.635" y=".298" filterUnits="userSpaceOnUse" style="color-interpolation-filters:sRGB"><feFlood id="feFlood28" flood-opacity="0" result="BackgroundImageFix"/><feBlend id="feBlend30" in="SourceGraphic" in2="BackgroundImageFix" mode="normal" result="shape"/><feGaussianBlur id="feGaussianBlur32" result="effect1_foregroundBlur_1956_348" stdDeviation="177.682"/></filter><filter id="filter1_f_1956_348" width="914.607" height="1285.48" x=".014" y="153.212" filterUnits="userSpaceOnUse" style="color-interpolation-filters:sRGB"><feFlood id="feFlood35" flood-opacity="0" result="BackgroundImageFix"/><feBlend id="feBlend37" in="SourceGraphic" in2="BackgroundImageFix" mode="normal" result="shape"/><feGaussianBlur id="feGaussianBlur39" result="effect1_foregroundBlur_1956_348" stdDeviation="177.682"/></filter><radialGradient id="paint0_radial_1956_348" cx="0" cy="0" r="1" gradientTransform="matrix(-260.94479,369.81689,-378.02032,-266.73317,550.92304,165.42697)" gradientUnits="userSpaceOnUse"><stop id="stop42" stop-color="#F4F6FC"/><stop id="stop44" offset="1" stop-color="#062677"/></radialGradient><linearGradient id="paint1_linear_1956_348" x1="538.885" x2="708.257" y1="262.513" y2="876.271" gradientTransform="translate(-226.04996,-272.14403)" gradientUnits="userSpaceOnUse"><stop id="stop47" stop-color="#0669FF"/><stop id="stop49" offset="1" stop-opacity="0"/></linearGradient><radialGradient id="paint2_radial_1956_348" cx="0" cy="0" r="1" gradientTransform="matrix(-420.16607,462.46946,-461.60792,-419.38335,582.67604,208.52097)" gradientUnits="userSpaceOnUse"><stop id="stop52" stop-color="#4FB4FF" stop-opacity="0"/><stop id="stop54" offset="1" stop-color="#052272"/></radialGradient><radialGradient id="paint3_radial_1956_348" cx="0" cy="0" r="1" gradientTransform="matrix(-233.72773,242.8027,-242.35027,-233.29221,594.01704,206.25297)" gradientUnits="userSpaceOnUse"><stop id="stop57" stop-color="#fff" stop-opacity=".81"/><stop id="stop59" offset="1" stop-color="#fff" stop-opacity="0"/></radialGradient><linearGradient id="paint4_linear_1956_348" x1="412.475" x2="416.02" y1="586.98" y2="929.576" gradientTransform="translate(-226.04996,-272.14403)" gradientUnits="userSpaceOnUse"><stop id="stop62" stop-color="#021B68"/><stop id="stop64" offset="1" stop-color="#2273B1"/></linearGradient><linearGradient id="paint5_linear_1956_348" x1="768.916" x2="896.512" y1="862.106" y2="543.169" gradientTransform="translate(-226.04996,-272.14403)" gradientUnits="userSpaceOnUse"><stop id="stop67" stop-color="#08194B"/><stop id="stop69" offset="1" stop-color="#2173B0"/></linearGradient><radialGradient id="paint6_radial_1956_348" cx="0" cy="0" r="1" gradientTransform="matrix(-295.88053,532.62007,-604.89827,-336.03243,622.25104,261.96097)" gradientUnits="userSpaceOnUse"><stop id="stop72" stop-color="#A6D8FC"/><stop id="stop74" offset="1" stop-color="#1D7FC8"/></radialGradient><linearGradient id="paint7_linear_1956_348" x1="311.601" x2="737.309" y1="1025.23" y2="722.912" gradientTransform="translate(-226.04996,-272.14403)" gradientUnits="userSpaceOnUse"><stop id="stop77" stop-color="#3898F0"/><stop id="stop79" offset="1" stop-color="#fff" stop-opacity="0"/></linearGradient><linearGradient id="paint8_linear_1956_348" x1="481.374" x2="737.631" y1="970.603" y2="582.714" gradientTransform="translate(-226.04996,-272.14403)" gradientUnits="userSpaceOnUse"><stop id="stop82" stop-color="#103855"/><stop id="stop84" offset="1" stop-color="#0024A4" stop-opacity="0"/></linearGradient></defs></svg>